<?xml version="1.0" encoding="iso-8859-1"?>
<!-- Generator: Adobe Illustrator 19.0.0, SVG Export Plug-In . SVG Version: 6.00 Build 0)  -->
<svg version="1.1" id="Capa_1" xmlns="http://www.w3.org/2000/svg" xmlns:xlink="http://www.w3.org/1999/xlink" x="0px" y="0px"
	 viewBox="0 0 512 512" style="enable-background:new 0 0 512 512;" xml:space="preserve">
<g>
	<g>
		<path d="M496,96H352V48c0-8.832-7.168-16-16-16H176c-8.832,0-16,7.168-16,16v48H16c-8.832,0-16,7.168-16,16v128
			c0,8.832,7.168,16,16,16h16v192c0,17.632,14.336,32,32,32h384c17.664,0,32-14.368,32-32V256h16c8.832,0,16-7.168,16-16V112
			C512,103.168,504.832,96,496,96z M192,64h128v32H192V64z M448,448H64V256h128v16c0,8.832,7.168,16,16,16h96
			c8.832,0,16-7.168,16-16v-16h128V448z M224,256v-32h64v32H224z M480,224H320v-16c0-8.832-7.168-16-16-16h-96
			c-8.832,0-16,7.168-16,16v16H32v-96h448V224z"/>
	</g>
</g>
<g>
</g>
<g>
</g>
<g>
</g>
<g>
</g>
<g>
</g>
<g>
</g>
<g>
</g>
<g>
</g>
<g>
</g>
<g>
</g>
<g>
</g>
<g>
</g>
<g>
</g>
<g>
</g>
<g>
</g>
</svg>
